<mxfile host="Electron" modified="2025-07-13T09:13:39.082Z" agent="Mozilla/5.0 (X11; Linux x86_64) AppleWebKit/537.36 (KHTML, like Gecko) draw.io/22.1.2 Chrome/114.0.5735.289 Electron/25.9.4 Safari/537.36" etag="X2lTuFYmKln47g2YSFbw" version="22.1.2" type="device" pages="2">
  <diagram name="diagram" id="5Va6cqVdRyKA9z4uXw94">
    <mxGraphModel dx="644" dy="563" grid="1" gridSize="10" guides="1" tooltips="1" connect="1" arrows="1" fold="1" page="1" pageScale="1" pageWidth="1169" pageHeight="827" math="0" shadow="0">
      <root>
        <mxCell id="0" />
        <mxCell id="1" parent="0" />
        <mxCell id="a4vUqZInYW3OqcLbjsj0-1" value="&lt;font style=&quot;font-size: 16px;&quot; color=&quot;#ffffff&quot;&gt;Effect&lt;/font&gt;" style="rounded=0;whiteSpace=wrap;html=1;fontSize=20;fillColor=#4579AC;strokeColor=#2A3244;" parent="1" vertex="1">
          <mxGeometry x="800" y="340" width="80" height="40" as="geometry" />
        </mxCell>
        <mxCell id="a4vUqZInYW3OqcLbjsj0-3" value="" style="endArrow=classic;html=1;rounded=0;entryX=0;entryY=0.5;entryDx=0;entryDy=0;strokeWidth=2;strokeColor=#2A3244;" parent="1" target="a4vUqZInYW3OqcLbjsj0-1" edge="1">
          <mxGeometry width="50" height="50" relative="1" as="geometry">
            <mxPoint x="360" y="360" as="sourcePoint" />
            <mxPoint x="600" y="270" as="targetPoint" />
          </mxGeometry>
        </mxCell>
        <mxCell id="a4vUqZInYW3OqcLbjsj0-4" value="Machine" style="text;html=1;strokeColor=none;fillColor=none;align=center;verticalAlign=middle;whiteSpace=wrap;rounded=0;fontSize=16;fontColor=#4579AC;" parent="1" vertex="1">
          <mxGeometry x="220" y="210" width="120" height="30" as="geometry" />
        </mxCell>
        <mxCell id="a4vUqZInYW3OqcLbjsj0-5" value="Method" style="text;html=1;strokeColor=none;fillColor=none;align=center;verticalAlign=middle;whiteSpace=wrap;rounded=0;fontSize=16;fontColor=#4579AC;" parent="1" vertex="1">
          <mxGeometry x="420" y="480" width="120" height="30" as="geometry" />
        </mxCell>
        <mxCell id="a4vUqZInYW3OqcLbjsj0-6" value="Manpower" style="text;html=1;strokeColor=none;fillColor=none;align=center;verticalAlign=middle;whiteSpace=wrap;rounded=0;fontSize=16;fontColor=#4579AC;" parent="1" vertex="1">
          <mxGeometry x="420" y="210" width="120" height="30" as="geometry" />
        </mxCell>
        <mxCell id="a4vUqZInYW3OqcLbjsj0-7" value="Environment" style="text;html=1;strokeColor=none;fillColor=none;align=center;verticalAlign=middle;whiteSpace=wrap;rounded=0;fontSize=16;fontColor=#4579AC;" parent="1" vertex="1">
          <mxGeometry x="620" y="480" width="120" height="30" as="geometry" />
        </mxCell>
        <mxCell id="a4vUqZInYW3OqcLbjsj0-9" value="Materials" style="text;html=1;strokeColor=none;fillColor=none;align=center;verticalAlign=middle;whiteSpace=wrap;rounded=0;fontSize=16;fontColor=#4579AC;" parent="1" vertex="1">
          <mxGeometry x="620" y="210" width="120" height="30" as="geometry" />
        </mxCell>
        <mxCell id="a4vUqZInYW3OqcLbjsj0-10" value="Measurement" style="text;html=1;strokeColor=none;fillColor=none;align=center;verticalAlign=middle;whiteSpace=wrap;rounded=0;fontSize=16;fontColor=#4579AC;" parent="1" vertex="1">
          <mxGeometry x="220" y="480" width="120" height="30" as="geometry" />
        </mxCell>
        <mxCell id="a4vUqZInYW3OqcLbjsj0-12" value="" style="endArrow=none;html=1;rounded=0;strokeWidth=2;strokeColor=#2A3244;endFill=0;" parent="1" edge="1">
          <mxGeometry width="50" height="50" relative="1" as="geometry">
            <mxPoint x="280" y="480" as="sourcePoint" />
            <mxPoint x="360" y="360" as="targetPoint" />
          </mxGeometry>
        </mxCell>
        <mxCell id="a4vUqZInYW3OqcLbjsj0-13" value="" style="endArrow=none;html=1;rounded=0;strokeWidth=2;strokeColor=#2A3244;endFill=0;" parent="1" edge="1">
          <mxGeometry width="50" height="50" relative="1" as="geometry">
            <mxPoint x="480" y="480" as="sourcePoint" />
            <mxPoint x="560" y="360" as="targetPoint" />
          </mxGeometry>
        </mxCell>
        <mxCell id="a4vUqZInYW3OqcLbjsj0-14" value="" style="endArrow=none;html=1;rounded=0;strokeWidth=2;strokeColor=#2A3244;endFill=0;" parent="1" edge="1">
          <mxGeometry width="50" height="50" relative="1" as="geometry">
            <mxPoint x="680" y="480" as="sourcePoint" />
            <mxPoint x="760" y="360" as="targetPoint" />
          </mxGeometry>
        </mxCell>
        <mxCell id="a4vUqZInYW3OqcLbjsj0-15" value="" style="endArrow=none;html=1;rounded=0;strokeWidth=2;strokeColor=#2A3244;exitX=0.5;exitY=0;exitDx=0;exitDy=0;endFill=0;" parent="1" edge="1">
          <mxGeometry width="50" height="50" relative="1" as="geometry">
            <mxPoint x="760" y="360" as="sourcePoint" />
            <mxPoint x="680" y="240" as="targetPoint" />
          </mxGeometry>
        </mxCell>
        <mxCell id="a4vUqZInYW3OqcLbjsj0-16" value="" style="endArrow=none;html=1;rounded=0;strokeWidth=2;strokeColor=#2A3244;exitX=0.5;exitY=0;exitDx=0;exitDy=0;endFill=0;" parent="1" edge="1">
          <mxGeometry width="50" height="50" relative="1" as="geometry">
            <mxPoint x="560" y="360" as="sourcePoint" />
            <mxPoint x="480" y="240" as="targetPoint" />
          </mxGeometry>
        </mxCell>
        <mxCell id="a4vUqZInYW3OqcLbjsj0-17" value="" style="endArrow=none;html=1;rounded=0;strokeWidth=2;strokeColor=#2A3244;exitX=0.5;exitY=0;exitDx=0;exitDy=0;endFill=0;" parent="1" edge="1">
          <mxGeometry width="50" height="50" relative="1" as="geometry">
            <mxPoint x="360" y="360" as="sourcePoint" />
            <mxPoint x="280" y="240" as="targetPoint" />
          </mxGeometry>
        </mxCell>
        <mxCell id="a4vUqZInYW3OqcLbjsj0-19" value="" style="endArrow=none;html=1;rounded=0;strokeWidth=2;strokeColor=#2A3244;endFill=0;" parent="1" edge="1">
          <mxGeometry width="50" height="50" relative="1" as="geometry">
            <mxPoint x="260" y="440" as="sourcePoint" />
            <mxPoint x="305" y="440" as="targetPoint" />
          </mxGeometry>
        </mxCell>
        <mxCell id="a4vUqZInYW3OqcLbjsj0-20" value="" style="endArrow=none;html=1;rounded=0;strokeWidth=2;strokeColor=#2A3244;endFill=0;" parent="1" edge="1">
          <mxGeometry width="50" height="50" relative="1" as="geometry">
            <mxPoint x="334" y="400" as="sourcePoint" />
            <mxPoint x="380" y="400" as="targetPoint" />
          </mxGeometry>
        </mxCell>
        <mxCell id="a4vUqZInYW3OqcLbjsj0-23" value="" style="endArrow=none;html=1;rounded=0;strokeWidth=2;strokeColor=#2A3244;endFill=0;" parent="1" edge="1">
          <mxGeometry width="50" height="50" relative="1" as="geometry">
            <mxPoint x="290" y="320" as="sourcePoint" />
            <mxPoint x="333" y="320" as="targetPoint" />
          </mxGeometry>
        </mxCell>
        <mxCell id="a4vUqZInYW3OqcLbjsj0-24" value="" style="endArrow=none;html=1;rounded=0;strokeWidth=2;strokeColor=#2A3244;endFill=0;" parent="1" edge="1">
          <mxGeometry width="50" height="50" relative="1" as="geometry">
            <mxPoint x="306" y="280" as="sourcePoint" />
            <mxPoint x="360" y="280" as="targetPoint" />
          </mxGeometry>
        </mxCell>
        <mxCell id="a4vUqZInYW3OqcLbjsj0-25" value="" style="endArrow=none;html=1;rounded=0;strokeWidth=2;strokeColor=#2A3244;endFill=0;" parent="1" edge="1">
          <mxGeometry width="50" height="50" relative="1" as="geometry">
            <mxPoint x="489" y="319.7" as="sourcePoint" />
            <mxPoint x="534" y="319.7" as="targetPoint" />
          </mxGeometry>
        </mxCell>
        <mxCell id="a4vUqZInYW3OqcLbjsj0-26" value="" style="endArrow=none;html=1;rounded=0;strokeWidth=2;strokeColor=#2A3244;endFill=0;" parent="1" edge="1">
          <mxGeometry width="50" height="50" relative="1" as="geometry">
            <mxPoint x="506" y="280" as="sourcePoint" />
            <mxPoint x="553" y="280" as="targetPoint" />
          </mxGeometry>
        </mxCell>
        <mxCell id="a4vUqZInYW3OqcLbjsj0-30" value="" style="endArrow=none;html=1;rounded=0;strokeWidth=2;strokeColor=#2A3244;endFill=0;" parent="1" edge="1">
          <mxGeometry width="50" height="50" relative="1" as="geometry">
            <mxPoint x="487" y="400" as="sourcePoint" />
            <mxPoint x="534" y="400" as="targetPoint" />
          </mxGeometry>
        </mxCell>
        <mxCell id="a4vUqZInYW3OqcLbjsj0-31" value="" style="endArrow=none;html=1;rounded=0;strokeWidth=2;strokeColor=#2A3244;endFill=0;" parent="1" edge="1">
          <mxGeometry width="50" height="50" relative="1" as="geometry">
            <mxPoint x="507" y="440" as="sourcePoint" />
            <mxPoint x="554" y="440" as="targetPoint" />
          </mxGeometry>
        </mxCell>
        <mxCell id="a4vUqZInYW3OqcLbjsj0-33" value="" style="endArrow=none;html=1;rounded=0;strokeWidth=2;strokeColor=#2A3244;endFill=0;" parent="1" edge="1">
          <mxGeometry width="50" height="50" relative="1" as="geometry">
            <mxPoint x="659.5" y="440" as="sourcePoint" />
            <mxPoint x="706.5" y="440" as="targetPoint" />
          </mxGeometry>
        </mxCell>
        <mxCell id="a4vUqZInYW3OqcLbjsj0-34" value="" style="endArrow=none;html=1;rounded=0;strokeWidth=2;strokeColor=#2A3244;endFill=0;" parent="1" edge="1">
          <mxGeometry width="50" height="50" relative="1" as="geometry">
            <mxPoint x="686" y="400" as="sourcePoint" />
            <mxPoint x="733" y="400" as="targetPoint" />
          </mxGeometry>
        </mxCell>
        <mxCell id="a4vUqZInYW3OqcLbjsj0-36" value="" style="endArrow=none;html=1;rounded=0;strokeWidth=2;strokeColor=#2A3244;endFill=0;" parent="1" edge="1">
          <mxGeometry width="50" height="50" relative="1" as="geometry">
            <mxPoint x="674" y="300" as="sourcePoint" />
            <mxPoint x="721" y="300" as="targetPoint" />
          </mxGeometry>
        </mxCell>
        <mxCell id="a4vUqZInYW3OqcLbjsj0-38" value="" style="endArrow=none;html=1;rounded=0;strokeWidth=2;strokeColor=#2A3244;endFill=0;" parent="1" edge="1">
          <mxGeometry width="50" height="50" relative="1" as="geometry">
            <mxPoint x="539.9999999999998" y="280" as="sourcePoint" />
            <mxPoint x="559.9999999999998" y="300" as="targetPoint" />
          </mxGeometry>
        </mxCell>
        <mxCell id="a4vUqZInYW3OqcLbjsj0-40" value="" style="endArrow=none;html=1;rounded=0;strokeWidth=2;strokeColor=#2A3244;endFill=0;" parent="1" edge="1">
          <mxGeometry width="50" height="50" relative="1" as="geometry">
            <mxPoint x="380" y="421" as="sourcePoint" />
            <mxPoint x="360" y="401" as="targetPoint" />
          </mxGeometry>
        </mxCell>
        <mxCell id="a4vUqZInYW3OqcLbjsj0-41" value="" style="endArrow=none;html=1;rounded=0;strokeWidth=2;strokeColor=#2A3244;endFill=0;" parent="1" edge="1">
          <mxGeometry width="50" height="50" relative="1" as="geometry">
            <mxPoint x="340" y="280" as="sourcePoint" />
            <mxPoint x="360" y="300" as="targetPoint" />
          </mxGeometry>
        </mxCell>
        <mxCell id="a4vUqZInYW3OqcLbjsj0-42" value="Cause" style="text;html=1;strokeColor=none;fillColor=none;align=center;verticalAlign=middle;whiteSpace=wrap;rounded=0;" parent="1" vertex="1">
          <mxGeometry x="210" y="430" width="50" height="20" as="geometry" />
        </mxCell>
        <mxCell id="a4vUqZInYW3OqcLbjsj0-43" value="Cause" style="text;html=1;strokeColor=none;fillColor=none;align=center;verticalAlign=middle;whiteSpace=wrap;rounded=0;" parent="1" vertex="1">
          <mxGeometry x="380" y="390" width="50" height="20" as="geometry" />
        </mxCell>
        <mxCell id="a4vUqZInYW3OqcLbjsj0-44" value="Cause" style="text;html=1;strokeColor=none;fillColor=none;align=center;verticalAlign=middle;whiteSpace=wrap;rounded=0;" parent="1" vertex="1">
          <mxGeometry x="240" y="310" width="50" height="20" as="geometry" />
        </mxCell>
        <mxCell id="a4vUqZInYW3OqcLbjsj0-45" value="Cause" style="text;html=1;strokeColor=none;fillColor=none;align=center;verticalAlign=middle;whiteSpace=wrap;rounded=0;" parent="1" vertex="1">
          <mxGeometry x="360" y="270" width="50" height="20" as="geometry" />
        </mxCell>
        <mxCell id="a4vUqZInYW3OqcLbjsj0-46" value="Cause" style="text;html=1;strokeColor=none;fillColor=none;align=center;verticalAlign=middle;whiteSpace=wrap;rounded=0;" parent="1" vertex="1">
          <mxGeometry x="440" y="310" width="50" height="20" as="geometry" />
        </mxCell>
        <mxCell id="a4vUqZInYW3OqcLbjsj0-47" value="Cause" style="text;html=1;strokeColor=none;fillColor=none;align=center;verticalAlign=middle;whiteSpace=wrap;rounded=0;" parent="1" vertex="1">
          <mxGeometry x="554" y="270" width="50" height="20" as="geometry" />
        </mxCell>
        <mxCell id="a4vUqZInYW3OqcLbjsj0-48" value="Cause" style="text;html=1;strokeColor=none;fillColor=none;align=center;verticalAlign=middle;whiteSpace=wrap;rounded=0;" parent="1" vertex="1">
          <mxGeometry x="630" y="290" width="45" height="20" as="geometry" />
        </mxCell>
        <mxCell id="a4vUqZInYW3OqcLbjsj0-49" value="Cause" style="text;html=1;strokeColor=none;fillColor=none;align=center;verticalAlign=middle;whiteSpace=wrap;rounded=0;" parent="1" vertex="1">
          <mxGeometry x="614" y="430" width="45" height="20" as="geometry" />
        </mxCell>
        <mxCell id="a4vUqZInYW3OqcLbjsj0-50" value="Cause" style="text;html=1;strokeColor=none;fillColor=none;align=center;verticalAlign=middle;whiteSpace=wrap;rounded=0;" parent="1" vertex="1">
          <mxGeometry x="642" y="390" width="45" height="20" as="geometry" />
        </mxCell>
        <mxCell id="a4vUqZInYW3OqcLbjsj0-51" value="Cause" style="text;html=1;strokeColor=none;fillColor=none;align=center;verticalAlign=middle;whiteSpace=wrap;rounded=0;" parent="1" vertex="1">
          <mxGeometry x="554.5" y="430" width="45" height="20" as="geometry" />
        </mxCell>
        <mxCell id="a4vUqZInYW3OqcLbjsj0-52" value="Cause" style="text;html=1;strokeColor=none;fillColor=none;align=center;verticalAlign=middle;whiteSpace=wrap;rounded=0;" parent="1" vertex="1">
          <mxGeometry x="442.5" y="390" width="45" height="20" as="geometry" />
        </mxCell>
        <mxCell id="a4vUqZInYW3OqcLbjsj0-53" value="Sub-cause" style="text;html=1;strokeColor=none;fillColor=none;align=center;verticalAlign=middle;whiteSpace=wrap;rounded=0;fontSize=10;" parent="1" vertex="1">
          <mxGeometry x="350" y="420" width="70" height="20" as="geometry" />
        </mxCell>
        <mxCell id="a4vUqZInYW3OqcLbjsj0-54" value="Sub-cause" style="text;html=1;strokeColor=none;fillColor=none;align=center;verticalAlign=middle;whiteSpace=wrap;rounded=0;fontSize=10;" parent="1" vertex="1">
          <mxGeometry x="350" y="300" width="70" height="20" as="geometry" />
        </mxCell>
        <mxCell id="a4vUqZInYW3OqcLbjsj0-55" value="Sub-cause" style="text;html=1;strokeColor=none;fillColor=none;align=center;verticalAlign=middle;whiteSpace=wrap;rounded=0;fontSize=10;" parent="1" vertex="1">
          <mxGeometry x="540" y="300" width="70" height="20" as="geometry" />
        </mxCell>
        <mxCell id="a4vUqZInYW3OqcLbjsj0-56" value="Sub-cause" style="text;html=1;strokeColor=none;fillColor=none;align=center;verticalAlign=middle;whiteSpace=wrap;rounded=0;fontSize=10;" parent="1" vertex="1">
          <mxGeometry x="540" y="400" width="70" height="20" as="geometry" />
        </mxCell>
        <mxCell id="a4vUqZInYW3OqcLbjsj0-57" value="" style="endArrow=none;html=1;rounded=0;strokeWidth=2;strokeColor=#2A3244;endFill=0;" parent="1" edge="1">
          <mxGeometry width="50" height="50" relative="1" as="geometry">
            <mxPoint x="533.9999999999998" y="440" as="sourcePoint" />
            <mxPoint x="553.9999999999998" y="420" as="targetPoint" />
          </mxGeometry>
        </mxCell>
        <mxCell id="a4vUqZInYW3OqcLbjsj0-58" value="" style="endArrow=none;html=1;rounded=0;strokeWidth=2;strokeColor=#2A3244;endFill=0;" parent="1" edge="1">
          <mxGeometry width="50" height="50" relative="1" as="geometry">
            <mxPoint x="290" y="440" as="sourcePoint" />
            <mxPoint x="270" y="420" as="targetPoint" />
          </mxGeometry>
        </mxCell>
        <mxCell id="a4vUqZInYW3OqcLbjsj0-59" value="Sub-cause" style="text;html=1;strokeColor=none;fillColor=none;align=center;verticalAlign=middle;whiteSpace=wrap;rounded=0;fontSize=10;" parent="1" vertex="1">
          <mxGeometry x="230" y="400" width="70" height="20" as="geometry" />
        </mxCell>
      </root>
    </mxGraphModel>
  </diagram>
  <diagram id="njxq567uKCHNxegVcrd5" name="inspections">
    <mxGraphModel dx="991" dy="866" grid="1" gridSize="10" guides="1" tooltips="1" connect="1" arrows="1" fold="1" page="1" pageScale="1" pageWidth="1169" pageHeight="827" math="0" shadow="0">
      <root>
        <mxCell id="0" />
        <mxCell id="1" parent="0" />
        <mxCell id="tonmqnCS-AZjIKOthgfT-1" value="&lt;font style=&quot;font-size: 16px;&quot; color=&quot;#ffffff&quot;&gt;Train inspections are taking too long.&lt;/font&gt;" style="rounded=0;whiteSpace=wrap;html=1;fontSize=20;fillColor=#4579AC;strokeColor=#2A3244;" parent="1" vertex="1">
          <mxGeometry x="1020" y="374" width="140" height="80" as="geometry" />
        </mxCell>
        <mxCell id="tonmqnCS-AZjIKOthgfT-2" value="" style="endArrow=classic;html=1;rounded=0;entryX=0;entryY=0.5;entryDx=0;entryDy=0;strokeWidth=2;strokeColor=#2A3244;" parent="1" target="tonmqnCS-AZjIKOthgfT-1" edge="1">
          <mxGeometry width="50" height="50" relative="1" as="geometry">
            <mxPoint x="250" y="414" as="sourcePoint" />
            <mxPoint x="600" y="270" as="targetPoint" />
          </mxGeometry>
        </mxCell>
        <mxCell id="tonmqnCS-AZjIKOthgfT-3" value="Machine" style="text;html=1;strokeColor=none;fillColor=none;align=center;verticalAlign=middle;whiteSpace=wrap;rounded=0;fontSize=24;fontColor=#4579AC;" parent="1" vertex="1">
          <mxGeometry x="76" y="40" width="120" height="30" as="geometry" />
        </mxCell>
        <mxCell id="tonmqnCS-AZjIKOthgfT-4" value="Method" style="text;html=1;strokeColor=none;fillColor=none;align=center;verticalAlign=middle;whiteSpace=wrap;rounded=0;fontSize=24;fontColor=#4579AC;" parent="1" vertex="1">
          <mxGeometry x="420" y="760" width="120" height="30" as="geometry" />
        </mxCell>
        <mxCell id="tonmqnCS-AZjIKOthgfT-5" value="Manpower" style="text;html=1;strokeColor=none;fillColor=none;align=center;verticalAlign=middle;whiteSpace=wrap;rounded=0;fontSize=24;fontColor=#4579AC;" parent="1" vertex="1">
          <mxGeometry x="420" y="40" width="120" height="30" as="geometry" />
        </mxCell>
        <mxCell id="tonmqnCS-AZjIKOthgfT-6" value="Environment" style="text;html=1;strokeColor=none;fillColor=none;align=center;verticalAlign=middle;whiteSpace=wrap;rounded=0;fontSize=24;fontColor=#4579AC;" parent="1" vertex="1">
          <mxGeometry x="778" y="760" width="120" height="30" as="geometry" />
        </mxCell>
        <mxCell id="tonmqnCS-AZjIKOthgfT-7" value="Materials" style="text;html=1;strokeColor=none;fillColor=none;align=center;verticalAlign=middle;whiteSpace=wrap;rounded=0;fontSize=24;fontColor=#4579AC;" parent="1" vertex="1">
          <mxGeometry x="778" y="40" width="120" height="30" as="geometry" />
        </mxCell>
        <mxCell id="tonmqnCS-AZjIKOthgfT-8" value="Measurement" style="text;html=1;strokeColor=none;fillColor=none;align=center;verticalAlign=middle;whiteSpace=wrap;rounded=0;fontSize=24;fontColor=#4579AC;" parent="1" vertex="1">
          <mxGeometry x="62" y="760" width="150" height="30" as="geometry" />
        </mxCell>
        <mxCell id="tonmqnCS-AZjIKOthgfT-11" value="" style="endArrow=none;html=1;rounded=0;strokeWidth=2;strokeColor=#2A3244;endFill=0;" parent="1" edge="1">
          <mxGeometry width="50" height="50" relative="1" as="geometry">
            <mxPoint x="840" y="760" as="sourcePoint" />
            <mxPoint x="960" y="414" as="targetPoint" />
          </mxGeometry>
        </mxCell>
        <mxCell id="ShisJUBdAFIt-luPYNo6-1" value="No data for carbon strips, etc." style="text;html=1;strokeColor=none;fillColor=none;align=right;verticalAlign=middle;whiteSpace=wrap;rounded=0;fontSize=16;" parent="1" vertex="1">
          <mxGeometry x="30" y="496" width="137" height="40" as="geometry" />
        </mxCell>
        <mxCell id="ShisJUBdAFIt-luPYNo6-2" value="Labour hours not recorded" style="text;html=1;strokeColor=none;fillColor=none;align=left;verticalAlign=middle;whiteSpace=wrap;rounded=0;fontSize=16;" parent="1" vertex="1">
          <mxGeometry x="212" y="680" width="130" height="40" as="geometry" />
        </mxCell>
        <mxCell id="d-KuD94C8Nsgo9h080XR-6" value="" style="endArrow=none;html=1;rounded=0;strokeWidth=2;strokeColor=#2A3244;endFill=0;" parent="1" edge="1">
          <mxGeometry width="50" height="50" relative="1" as="geometry">
            <mxPoint x="480" y="759" as="sourcePoint" />
            <mxPoint x="600" y="413" as="targetPoint" />
          </mxGeometry>
        </mxCell>
        <mxCell id="d-KuD94C8Nsgo9h080XR-7" value="" style="endArrow=none;html=1;rounded=0;strokeWidth=2;strokeColor=#2A3244;endFill=0;" parent="1" edge="1">
          <mxGeometry width="50" height="50" relative="1" as="geometry">
            <mxPoint x="136" y="760" as="sourcePoint" />
            <mxPoint x="256" y="414" as="targetPoint" />
          </mxGeometry>
        </mxCell>
        <mxCell id="d-KuD94C8Nsgo9h080XR-9" value="" style="endArrow=none;html=1;rounded=0;strokeWidth=2;strokeColor=#2A3244;endFill=0;" parent="1" edge="1">
          <mxGeometry width="50" height="50" relative="1" as="geometry">
            <mxPoint x="960.0000000000005" y="413" as="sourcePoint" />
            <mxPoint x="840.0000000000005" y="67" as="targetPoint" />
          </mxGeometry>
        </mxCell>
        <mxCell id="d-KuD94C8Nsgo9h080XR-10" value="" style="endArrow=none;html=1;rounded=0;strokeWidth=2;strokeColor=#2A3244;endFill=0;" parent="1" edge="1">
          <mxGeometry width="50" height="50" relative="1" as="geometry">
            <mxPoint x="600.0000000000005" y="416" as="sourcePoint" />
            <mxPoint x="480.00000000000045" y="70" as="targetPoint" />
          </mxGeometry>
        </mxCell>
        <mxCell id="d-KuD94C8Nsgo9h080XR-11" value="" style="endArrow=none;html=1;rounded=0;strokeWidth=2;strokeColor=#2A3244;endFill=0;" parent="1" edge="1">
          <mxGeometry width="50" height="50" relative="1" as="geometry">
            <mxPoint x="256.00000000000045" y="413" as="sourcePoint" />
            <mxPoint x="136.00000000000045" y="67" as="targetPoint" />
          </mxGeometry>
        </mxCell>
        <mxCell id="d-KuD94C8Nsgo9h080XR-12" value="Inspection time vs. repair time" style="text;html=1;strokeColor=none;fillColor=none;align=left;verticalAlign=middle;whiteSpace=wrap;rounded=0;fontSize=16;" parent="1" vertex="1">
          <mxGeometry x="260" y="540" width="130" height="40" as="geometry" />
        </mxCell>
        <mxCell id="d-KuD94C8Nsgo9h080XR-13" value="" style="endArrow=none;html=1;rounded=0;strokeWidth=2;strokeColor=#2A3244;endFill=0;" parent="1" edge="1">
          <mxGeometry width="50" height="50" relative="1" as="geometry">
            <mxPoint x="206" y="560" as="sourcePoint" />
            <mxPoint x="256" y="560" as="targetPoint" />
          </mxGeometry>
        </mxCell>
        <mxCell id="d-KuD94C8Nsgo9h080XR-14" value="" style="endArrow=none;html=1;rounded=0;strokeWidth=2;strokeColor=#2A3244;endFill=0;" parent="1" edge="1">
          <mxGeometry width="50" height="50" relative="1" as="geometry">
            <mxPoint x="226" y="560" as="sourcePoint" />
            <mxPoint x="266" y="520" as="targetPoint" />
          </mxGeometry>
        </mxCell>
        <mxCell id="d-KuD94C8Nsgo9h080XR-15" value="No definition" style="text;html=1;strokeColor=none;fillColor=none;align=left;verticalAlign=middle;whiteSpace=wrap;rounded=0;fontSize=16;" parent="1" vertex="1">
          <mxGeometry x="270" y="500" width="100" height="30" as="geometry" />
        </mxCell>
        <mxCell id="d-KuD94C8Nsgo9h080XR-16" value="" style="endArrow=none;html=1;rounded=0;strokeWidth=2;strokeColor=#2A3244;endFill=0;" parent="1" edge="1">
          <mxGeometry width="50" height="50" relative="1" as="geometry">
            <mxPoint x="156" y="700" as="sourcePoint" />
            <mxPoint x="211" y="700.36" as="targetPoint" />
          </mxGeometry>
        </mxCell>
        <mxCell id="d-KuD94C8Nsgo9h080XR-17" value="" style="endArrow=none;html=1;rounded=0;strokeWidth=2;strokeColor=#2A3244;endFill=0;" parent="1" edge="1">
          <mxGeometry width="50" height="50" relative="1" as="geometry">
            <mxPoint x="167" y="515.64" as="sourcePoint" />
            <mxPoint x="222" y="516" as="targetPoint" />
          </mxGeometry>
        </mxCell>
        <mxCell id="41a30kxaXeG7TumSXC0p-1" value="Tasks not filled in correctly" style="text;html=1;strokeColor=none;fillColor=none;align=right;verticalAlign=middle;whiteSpace=wrap;rounded=0;fontSize=16;" parent="1" vertex="1">
          <mxGeometry y="620" width="120" height="40" as="geometry" />
        </mxCell>
        <mxCell id="41a30kxaXeG7TumSXC0p-2" value="" style="endArrow=none;html=1;rounded=0;strokeWidth=2;strokeColor=#2A3244;endFill=0;" parent="1" edge="1">
          <mxGeometry width="50" height="50" relative="1" as="geometry">
            <mxPoint x="122" y="639.66" as="sourcePoint" />
            <mxPoint x="177" y="640.02" as="targetPoint" />
          </mxGeometry>
        </mxCell>
        <mxCell id="41a30kxaXeG7TumSXC0p-3" value="Brake pad changes" style="text;html=1;strokeColor=none;fillColor=none;align=right;verticalAlign=middle;whiteSpace=wrap;rounded=0;fontSize=16;" parent="1" vertex="1">
          <mxGeometry x="33" y="260" width="120" height="40" as="geometry" />
        </mxCell>
        <mxCell id="41a30kxaXeG7TumSXC0p-4" value="" style="endArrow=none;html=1;rounded=0;strokeWidth=2;strokeColor=#2A3244;endFill=0;" parent="1" edge="1">
          <mxGeometry width="50" height="50" relative="1" as="geometry">
            <mxPoint x="155" y="279.65999999999997" as="sourcePoint" />
            <mxPoint x="210" y="280.02" as="targetPoint" />
          </mxGeometry>
        </mxCell>
        <mxCell id="41a30kxaXeG7TumSXC0p-5" value="Train layout" style="text;html=1;strokeColor=none;fillColor=none;align=left;verticalAlign=middle;whiteSpace=wrap;rounded=0;fontSize=16;" parent="1" vertex="1">
          <mxGeometry x="245" y="199" width="130" height="40" as="geometry" />
        </mxCell>
        <mxCell id="41a30kxaXeG7TumSXC0p-6" value="" style="endArrow=none;html=1;rounded=0;strokeWidth=2;strokeColor=#2A3244;endFill=0;" parent="1" edge="1">
          <mxGeometry width="50" height="50" relative="1" as="geometry">
            <mxPoint x="189" y="219" as="sourcePoint" />
            <mxPoint x="244" y="219.36" as="targetPoint" />
          </mxGeometry>
        </mxCell>
        <mxCell id="41a30kxaXeG7TumSXC0p-9" value="Incorrect tooling" style="text;html=1;strokeColor=none;fillColor=none;align=left;verticalAlign=middle;whiteSpace=wrap;rounded=0;fontSize=16;" parent="1" vertex="1">
          <mxGeometry x="926" y="135" width="130" height="40" as="geometry" />
        </mxCell>
        <mxCell id="41a30kxaXeG7TumSXC0p-10" value="" style="endArrow=none;html=1;rounded=0;strokeWidth=2;strokeColor=#2A3244;endFill=0;" parent="1" edge="1">
          <mxGeometry width="50" height="50" relative="1" as="geometry">
            <mxPoint x="870" y="155" as="sourcePoint" />
            <mxPoint x="925" y="155.36" as="targetPoint" />
          </mxGeometry>
        </mxCell>
        <mxCell id="41a30kxaXeG7TumSXC0p-11" value="No parts" style="text;html=1;strokeColor=none;fillColor=none;align=right;verticalAlign=middle;whiteSpace=wrap;rounded=0;fontSize=16;" parent="1" vertex="1">
          <mxGeometry x="750" y="276" width="87" height="40" as="geometry" />
        </mxCell>
        <mxCell id="41a30kxaXeG7TumSXC0p-12" value="" style="endArrow=none;html=1;rounded=0;strokeWidth=2;strokeColor=#2A3244;endFill=0;" parent="1" edge="1">
          <mxGeometry width="50" height="50" relative="1" as="geometry">
            <mxPoint x="840" y="296" as="sourcePoint" />
            <mxPoint x="920" y="296.02" as="targetPoint" />
          </mxGeometry>
        </mxCell>
        <mxCell id="41a30kxaXeG7TumSXC0p-13" value="" style="endArrow=none;html=1;rounded=0;strokeWidth=2;strokeColor=#2A3244;endFill=0;" parent="1" edge="1">
          <mxGeometry width="50" height="50" relative="1" as="geometry">
            <mxPoint x="860" y="336" as="sourcePoint" />
            <mxPoint x="880" y="296" as="targetPoint" />
          </mxGeometry>
        </mxCell>
        <mxCell id="41a30kxaXeG7TumSXC0p-14" value="" style="endArrow=none;html=1;rounded=0;strokeWidth=2;strokeColor=#2A3244;endFill=0;" parent="1" edge="1">
          <mxGeometry width="50" height="50" relative="1" as="geometry">
            <mxPoint x="860" y="255" as="sourcePoint" />
            <mxPoint x="880" y="295" as="targetPoint" />
          </mxGeometry>
        </mxCell>
        <mxCell id="41a30kxaXeG7TumSXC0p-15" value="Brake pads" style="text;html=1;strokeColor=none;fillColor=none;align=right;verticalAlign=middle;whiteSpace=wrap;rounded=0;fontSize=16;" parent="1" vertex="1">
          <mxGeometry x="770" y="326" width="87" height="30" as="geometry" />
        </mxCell>
        <mxCell id="41a30kxaXeG7TumSXC0p-16" value="Pantographs" style="text;html=1;strokeColor=none;fillColor=none;align=right;verticalAlign=middle;whiteSpace=wrap;rounded=0;fontSize=16;" parent="1" vertex="1">
          <mxGeometry x="770" y="236" width="87" height="30" as="geometry" />
        </mxCell>
        <mxCell id="41a30kxaXeG7TumSXC0p-17" value="Shunters" style="text;html=1;strokeColor=none;fillColor=none;align=left;verticalAlign=middle;whiteSpace=wrap;rounded=0;fontSize=16;" parent="1" vertex="1">
          <mxGeometry x="908" y="710" width="130" height="40" as="geometry" />
        </mxCell>
        <mxCell id="41a30kxaXeG7TumSXC0p-18" value="" style="endArrow=none;html=1;rounded=0;strokeWidth=2;strokeColor=#2A3244;endFill=0;" parent="1" edge="1">
          <mxGeometry width="50" height="50" relative="1" as="geometry">
            <mxPoint x="852" y="730" as="sourcePoint" />
            <mxPoint x="907" y="730.36" as="targetPoint" />
          </mxGeometry>
        </mxCell>
        <mxCell id="41a30kxaXeG7TumSXC0p-19" value="Train position" style="text;html=1;strokeColor=none;fillColor=none;align=left;verticalAlign=middle;whiteSpace=wrap;rounded=0;fontSize=16;" parent="1" vertex="1">
          <mxGeometry x="938" y="620" width="130" height="40" as="geometry" />
        </mxCell>
        <mxCell id="41a30kxaXeG7TumSXC0p-20" value="" style="endArrow=none;html=1;rounded=0;strokeWidth=2;strokeColor=#2A3244;endFill=0;" parent="1" edge="1">
          <mxGeometry width="50" height="50" relative="1" as="geometry">
            <mxPoint x="882" y="640" as="sourcePoint" />
            <mxPoint x="937" y="640.36" as="targetPoint" />
          </mxGeometry>
        </mxCell>
        <mxCell id="41a30kxaXeG7TumSXC0p-21" value="High road access" style="text;html=1;strokeColor=none;fillColor=none;align=left;verticalAlign=middle;whiteSpace=wrap;rounded=0;fontSize=16;" parent="1" vertex="1">
          <mxGeometry x="969.5" y="526" width="130" height="40" as="geometry" />
        </mxCell>
        <mxCell id="41a30kxaXeG7TumSXC0p-22" value="" style="endArrow=none;html=1;rounded=0;strokeWidth=2;strokeColor=#2A3244;endFill=0;" parent="1" edge="1">
          <mxGeometry width="50" height="50" relative="1" as="geometry">
            <mxPoint x="913.5" y="546" as="sourcePoint" />
            <mxPoint x="968.5" y="546.36" as="targetPoint" />
          </mxGeometry>
        </mxCell>
        <mxCell id="LhUt6Bk3kXxdVx7hE6Q2-1" value="" style="endArrow=none;html=1;rounded=0;strokeWidth=2;strokeColor=#2A3244;endFill=0;" parent="1" edge="1">
          <mxGeometry width="50" height="50" relative="1" as="geometry">
            <mxPoint x="910" y="640" as="sourcePoint" />
            <mxPoint x="950" y="600" as="targetPoint" />
          </mxGeometry>
        </mxCell>
        <mxCell id="LhUt6Bk3kXxdVx7hE6Q2-2" value="" style="endArrow=none;html=1;rounded=0;strokeWidth=2;strokeColor=#2A3244;endFill=0;" parent="1" edge="1">
          <mxGeometry width="50" height="50" relative="1" as="geometry">
            <mxPoint x="905" y="640" as="sourcePoint" />
            <mxPoint x="945" y="680" as="targetPoint" />
          </mxGeometry>
        </mxCell>
        <mxCell id="LhUt6Bk3kXxdVx7hE6Q2-3" value="Walking time" style="text;html=1;strokeColor=none;fillColor=none;align=left;verticalAlign=middle;whiteSpace=wrap;rounded=0;fontSize=16;" parent="1" vertex="1">
          <mxGeometry x="948" y="660" width="130" height="40" as="geometry" />
        </mxCell>
        <mxCell id="LhUt6Bk3kXxdVx7hE6Q2-4" value="Yellow platforms" style="text;html=1;strokeColor=none;fillColor=none;align=left;verticalAlign=middle;whiteSpace=wrap;rounded=0;fontSize=16;" parent="1" vertex="1">
          <mxGeometry x="952" y="580" width="130" height="40" as="geometry" />
        </mxCell>
        <mxCell id="LhUt6Bk3kXxdVx7hE6Q2-5" value="" style="endArrow=none;html=1;rounded=0;strokeWidth=2;strokeColor=#2A3244;endFill=0;" parent="1" edge="1">
          <mxGeometry width="50" height="50" relative="1" as="geometry">
            <mxPoint x="948.5" y="546" as="sourcePoint" />
            <mxPoint x="988.5" y="506" as="targetPoint" />
          </mxGeometry>
        </mxCell>
        <mxCell id="LhUt6Bk3kXxdVx7hE6Q2-6" value="Cut-out time" style="text;html=1;strokeColor=none;fillColor=none;align=left;verticalAlign=middle;whiteSpace=wrap;rounded=0;fontSize=16;" parent="1" vertex="1">
          <mxGeometry x="990.5" y="486" width="130" height="40" as="geometry" />
        </mxCell>
        <mxCell id="LhUt6Bk3kXxdVx7hE6Q2-7" value="Tools &amp;amp; parts not near train" style="text;html=1;strokeColor=none;fillColor=none;align=right;verticalAlign=middle;whiteSpace=wrap;rounded=0;fontSize=16;" parent="1" vertex="1">
          <mxGeometry x="729" y="506" width="137" height="40" as="geometry" />
        </mxCell>
        <mxCell id="LhUt6Bk3kXxdVx7hE6Q2-8" value="" style="endArrow=none;html=1;rounded=0;strokeWidth=2;strokeColor=#2A3244;endFill=0;" parent="1" edge="1">
          <mxGeometry width="50" height="50" relative="1" as="geometry">
            <mxPoint x="866" y="525.64" as="sourcePoint" />
            <mxPoint x="921" y="526" as="targetPoint" />
          </mxGeometry>
        </mxCell>
        <mxCell id="LhUt6Bk3kXxdVx7hE6Q2-9" value="No storage space for personal tools in the shed" style="text;html=1;strokeColor=none;fillColor=none;align=right;verticalAlign=middle;whiteSpace=wrap;rounded=0;fontSize=16;" parent="1" vertex="1">
          <mxGeometry x="628.5" y="590" width="207.5" height="40" as="geometry" />
        </mxCell>
        <mxCell id="LhUt6Bk3kXxdVx7hE6Q2-10" value="" style="endArrow=none;html=1;rounded=0;strokeWidth=2;strokeColor=#2A3244;endFill=0;" parent="1" edge="1">
          <mxGeometry width="50" height="50" relative="1" as="geometry">
            <mxPoint x="836" y="609.64" as="sourcePoint" />
            <mxPoint x="891" y="610" as="targetPoint" />
          </mxGeometry>
        </mxCell>
        <mxCell id="LhUt6Bk3kXxdVx7hE6Q2-11" value="Personal tools" style="text;html=1;strokeColor=none;fillColor=none;align=right;verticalAlign=middle;whiteSpace=wrap;rounded=0;fontSize=16;" parent="1" vertex="1">
          <mxGeometry x="696" y="660" width="117" height="40" as="geometry" />
        </mxCell>
        <mxCell id="LhUt6Bk3kXxdVx7hE6Q2-12" value="" style="endArrow=none;html=1;rounded=0;strokeWidth=2;strokeColor=#2A3244;endFill=0;" parent="1" edge="1">
          <mxGeometry width="50" height="50" relative="1" as="geometry">
            <mxPoint x="813" y="679.64" as="sourcePoint" />
            <mxPoint x="868" y="680" as="targetPoint" />
          </mxGeometry>
        </mxCell>
        <mxCell id="DypJANMSsr71ooLyFjz9-2" value="Lack of accountability" style="text;html=1;strokeColor=none;fillColor=none;align=right;verticalAlign=middle;whiteSpace=wrap;rounded=0;fontSize=16;" parent="1" vertex="1">
          <mxGeometry x="323" y="110" width="120" height="40" as="geometry" />
        </mxCell>
        <mxCell id="DypJANMSsr71ooLyFjz9-3" value="" style="endArrow=none;html=1;rounded=0;strokeWidth=2;strokeColor=#2A3244;endFill=0;" parent="1" edge="1">
          <mxGeometry width="50" height="50" relative="1" as="geometry">
            <mxPoint x="445" y="129.65999999999997" as="sourcePoint" />
            <mxPoint x="500" y="130.01999999999998" as="targetPoint" />
          </mxGeometry>
        </mxCell>
        <mxCell id="DypJANMSsr71ooLyFjz9-6" value="Skill of staff" style="text;html=1;strokeColor=none;fillColor=none;align=left;verticalAlign=middle;whiteSpace=wrap;rounded=0;fontSize=16;" parent="1" vertex="1">
          <mxGeometry x="561" y="125.5" width="120" height="40" as="geometry" />
        </mxCell>
        <mxCell id="DypJANMSsr71ooLyFjz9-7" value="" style="endArrow=none;html=1;rounded=0;strokeWidth=2;strokeColor=#2A3244;endFill=0;" parent="1" edge="1">
          <mxGeometry width="50" height="50" relative="1" as="geometry">
            <mxPoint x="530" y="370" as="sourcePoint" />
            <mxPoint x="585" y="370.36" as="targetPoint" />
          </mxGeometry>
        </mxCell>
        <mxCell id="DypJANMSsr71ooLyFjz9-8" value="" style="endArrow=none;html=1;rounded=0;strokeWidth=2;strokeColor=#2A3244;endFill=0;" parent="1" edge="1">
          <mxGeometry width="50" height="50" relative="1" as="geometry">
            <mxPoint x="506" y="145.5" as="sourcePoint" />
            <mxPoint x="561" y="145.86" as="targetPoint" />
          </mxGeometry>
        </mxCell>
        <mxCell id="DypJANMSsr71ooLyFjz9-10" value="" style="endArrow=none;html=1;rounded=0;strokeWidth=2;strokeColor=#2A3244;endFill=0;" parent="1" edge="1">
          <mxGeometry width="50" height="50" relative="1" as="geometry">
            <mxPoint x="531" y="145.5" as="sourcePoint" />
            <mxPoint x="551" y="105.5" as="targetPoint" />
          </mxGeometry>
        </mxCell>
        <mxCell id="DypJANMSsr71ooLyFjz9-11" value="Contractors" style="text;html=1;strokeColor=none;fillColor=none;align=left;verticalAlign=middle;whiteSpace=wrap;rounded=0;fontSize=16;" parent="1" vertex="1">
          <mxGeometry x="541" y="74.5" width="120" height="40" as="geometry" />
        </mxCell>
        <mxCell id="DypJANMSsr71ooLyFjz9-13" value="Short on staff" style="text;html=1;strokeColor=none;fillColor=none;align=left;verticalAlign=middle;whiteSpace=wrap;rounded=0;fontSize=16;" parent="1" vertex="1">
          <mxGeometry x="602" y="239" width="120" height="40" as="geometry" />
        </mxCell>
        <mxCell id="DypJANMSsr71ooLyFjz9-14" value="" style="endArrow=none;html=1;rounded=0;strokeWidth=2;strokeColor=#2A3244;endFill=0;" parent="1" edge="1">
          <mxGeometry width="50" height="50" relative="1" as="geometry">
            <mxPoint x="547" y="259" as="sourcePoint" />
            <mxPoint x="602" y="259.36" as="targetPoint" />
          </mxGeometry>
        </mxCell>
        <mxCell id="DypJANMSsr71ooLyFjz9-15" value="" style="endArrow=none;html=1;rounded=0;strokeWidth=2;strokeColor=#2A3244;endFill=0;" parent="1" edge="1">
          <mxGeometry width="50" height="50" relative="1" as="geometry">
            <mxPoint x="572" y="259" as="sourcePoint" />
            <mxPoint x="592" y="219" as="targetPoint" />
          </mxGeometry>
        </mxCell>
        <mxCell id="DypJANMSsr71ooLyFjz9-16" value="Taken off TMP" style="text;html=1;strokeColor=none;fillColor=none;align=left;verticalAlign=middle;whiteSpace=wrap;rounded=0;fontSize=16;" parent="1" vertex="1">
          <mxGeometry x="582" y="188" width="120" height="40" as="geometry" />
        </mxCell>
        <mxCell id="DypJANMSsr71ooLyFjz9-17" value="Rostering" style="text;html=1;strokeColor=none;fillColor=none;align=left;verticalAlign=middle;whiteSpace=wrap;rounded=0;fontSize=16;" parent="1" vertex="1">
          <mxGeometry x="631" y="325.5" width="120" height="40" as="geometry" />
        </mxCell>
        <mxCell id="DypJANMSsr71ooLyFjz9-18" value="" style="endArrow=none;html=1;rounded=0;strokeWidth=2;strokeColor=#2A3244;endFill=0;" parent="1" edge="1">
          <mxGeometry width="50" height="50" relative="1" as="geometry">
            <mxPoint x="576" y="345.5" as="sourcePoint" />
            <mxPoint x="631" y="345.86" as="targetPoint" />
          </mxGeometry>
        </mxCell>
        <mxCell id="DypJANMSsr71ooLyFjz9-21" value="Motivation" style="text;html=1;strokeColor=none;fillColor=none;align=right;verticalAlign=middle;whiteSpace=wrap;rounded=0;fontSize=16;" parent="1" vertex="1">
          <mxGeometry x="450" y="350" width="80" height="40" as="geometry" />
        </mxCell>
        <mxCell id="DypJANMSsr71ooLyFjz9-22" value="" style="endArrow=none;html=1;rounded=0;strokeWidth=2;strokeColor=#2A3244;endFill=0;" parent="1" edge="1">
          <mxGeometry width="50" height="50" relative="1" as="geometry">
            <mxPoint x="533" y="329.5" as="sourcePoint" />
            <mxPoint x="553" y="369.5" as="targetPoint" />
          </mxGeometry>
        </mxCell>
        <mxCell id="DypJANMSsr71ooLyFjz9-23" value="Same staff always doing TMP" style="text;html=1;strokeColor=none;fillColor=none;align=right;verticalAlign=middle;whiteSpace=wrap;rounded=0;fontSize=16;" parent="1" vertex="1">
          <mxGeometry x="399" y="285.5" width="140" height="40" as="geometry" />
        </mxCell>
        <mxCell id="DypJANMSsr71ooLyFjz9-24" value="" style="endArrow=none;html=1;rounded=0;strokeWidth=2;strokeColor=#2A3244;endFill=0;" parent="1" edge="1">
          <mxGeometry width="50" height="50" relative="1" as="geometry">
            <mxPoint x="470" y="194.5" as="sourcePoint" />
            <mxPoint x="525" y="194.86" as="targetPoint" />
          </mxGeometry>
        </mxCell>
        <mxCell id="DypJANMSsr71ooLyFjz9-25" value="Too many people" style="text;html=1;strokeColor=none;fillColor=none;align=right;verticalAlign=middle;whiteSpace=wrap;rounded=0;fontSize=16;" parent="1" vertex="1">
          <mxGeometry x="350" y="175" width="120" height="40" as="geometry" />
        </mxCell>
        <mxCell id="DypJANMSsr71ooLyFjz9-26" value="" style="endArrow=none;html=1;rounded=0;strokeWidth=2;strokeColor=#2A3244;endFill=0;" parent="1" edge="1">
          <mxGeometry width="50" height="50" relative="1" as="geometry">
            <mxPoint x="486" y="249.5" as="sourcePoint" />
            <mxPoint x="541" y="249.86" as="targetPoint" />
          </mxGeometry>
        </mxCell>
        <mxCell id="DypJANMSsr71ooLyFjz9-27" value="Mixing teams" style="text;html=1;strokeColor=none;fillColor=none;align=right;verticalAlign=middle;whiteSpace=wrap;rounded=0;fontSize=16;" parent="1" vertex="1">
          <mxGeometry x="366" y="230" width="120" height="40" as="geometry" />
        </mxCell>
        <mxCell id="DypJANMSsr71ooLyFjz9-28" value="Fault booking" style="text;html=1;strokeColor=none;fillColor=none;align=right;verticalAlign=middle;whiteSpace=wrap;rounded=0;fontSize=16;" parent="1" vertex="1">
          <mxGeometry x="343" y="640" width="117" height="40" as="geometry" />
        </mxCell>
        <mxCell id="DypJANMSsr71ooLyFjz9-29" value="" style="endArrow=none;html=1;rounded=0;strokeWidth=2;strokeColor=#2A3244;endFill=0;" parent="1" edge="1">
          <mxGeometry width="50" height="50" relative="1" as="geometry">
            <mxPoint x="460" y="659.64" as="sourcePoint" />
            <mxPoint x="515" y="660" as="targetPoint" />
          </mxGeometry>
        </mxCell>
        <mxCell id="DypJANMSsr71ooLyFjz9-30" value="" style="endArrow=none;html=1;rounded=0;strokeWidth=2;strokeColor=#2A3244;endFill=0;" parent="1" edge="1">
          <mxGeometry width="50" height="50" relative="1" as="geometry">
            <mxPoint x="466" y="620" as="sourcePoint" />
            <mxPoint x="486" y="660" as="targetPoint" />
          </mxGeometry>
        </mxCell>
        <mxCell id="DypJANMSsr71ooLyFjz9-31" value="No clear definition" style="text;html=1;strokeColor=none;fillColor=none;align=right;verticalAlign=middle;whiteSpace=wrap;rounded=0;fontSize=16;" parent="1" vertex="1">
          <mxGeometry x="350" y="590" width="133" height="40" as="geometry" />
        </mxCell>
        <mxCell id="DypJANMSsr71ooLyFjz9-32" value="" style="endArrow=none;html=1;rounded=0;strokeWidth=2;strokeColor=#2A3244;endFill=0;" parent="1" edge="1">
          <mxGeometry width="50" height="50" relative="1" as="geometry">
            <mxPoint x="431" y="740" as="sourcePoint" />
            <mxPoint x="486" y="740.36" as="targetPoint" />
          </mxGeometry>
        </mxCell>
        <mxCell id="DypJANMSsr71ooLyFjz9-33" value="Zone allocation monitoring" style="text;html=1;strokeColor=none;fillColor=none;align=right;verticalAlign=middle;whiteSpace=wrap;rounded=0;fontSize=16;" parent="1" vertex="1">
          <mxGeometry x="310" y="720" width="117" height="40" as="geometry" />
        </mxCell>
        <mxCell id="DypJANMSsr71ooLyFjz9-34" value="" style="endArrow=none;html=1;rounded=0;strokeWidth=2;strokeColor=#2A3244;endFill=0;" parent="1" edge="1">
          <mxGeometry width="50" height="50" relative="1" as="geometry">
            <mxPoint x="530" y="460" as="sourcePoint" />
            <mxPoint x="585" y="460.36" as="targetPoint" />
          </mxGeometry>
        </mxCell>
        <mxCell id="DypJANMSsr71ooLyFjz9-35" value="No time for special actions" style="text;html=1;strokeColor=none;fillColor=none;align=right;verticalAlign=middle;whiteSpace=wrap;rounded=0;fontSize=16;" parent="1" vertex="1">
          <mxGeometry x="397" y="440" width="133" height="40" as="geometry" />
        </mxCell>
        <mxCell id="DypJANMSsr71ooLyFjz9-36" value="" style="endArrow=none;html=1;rounded=0;strokeWidth=2;strokeColor=#2A3244;endFill=0;" parent="1" edge="1">
          <mxGeometry width="50" height="50" relative="1" as="geometry">
            <mxPoint x="510" y="515" as="sourcePoint" />
            <mxPoint x="565" y="515.36" as="targetPoint" />
          </mxGeometry>
        </mxCell>
        <mxCell id="DypJANMSsr71ooLyFjz9-37" value="(Ordering of) tasks" style="text;html=1;strokeColor=none;fillColor=none;align=right;verticalAlign=middle;whiteSpace=wrap;rounded=0;fontSize=16;" parent="1" vertex="1">
          <mxGeometry x="410" y="494" width="99.5" height="44" as="geometry" />
        </mxCell>
        <mxCell id="DypJANMSsr71ooLyFjz9-38" value="" style="endArrow=none;html=1;rounded=0;strokeWidth=2;strokeColor=#2A3244;endFill=0;" parent="1" edge="1">
          <mxGeometry width="50" height="50" relative="1" as="geometry">
            <mxPoint x="536" y="516" as="sourcePoint" />
            <mxPoint x="516" y="556" as="targetPoint" />
          </mxGeometry>
        </mxCell>
        <mxCell id="DypJANMSsr71ooLyFjz9-39" value="Repeat testing" style="text;html=1;strokeColor=none;fillColor=none;align=right;verticalAlign=middle;whiteSpace=wrap;rounded=0;fontSize=16;" parent="1" vertex="1">
          <mxGeometry x="396" y="546" width="133" height="40" as="geometry" />
        </mxCell>
        <mxCell id="DypJANMSsr71ooLyFjz9-40" value="No method" style="text;html=1;strokeColor=none;fillColor=none;align=left;verticalAlign=middle;whiteSpace=wrap;rounded=0;fontSize=16;" parent="1" vertex="1">
          <mxGeometry x="550" y="700" width="130" height="40" as="geometry" />
        </mxCell>
        <mxCell id="DypJANMSsr71ooLyFjz9-41" value="" style="endArrow=none;html=1;rounded=0;strokeWidth=2;strokeColor=#2A3244;endFill=0;" parent="1" edge="1">
          <mxGeometry width="50" height="50" relative="1" as="geometry">
            <mxPoint x="494" y="720" as="sourcePoint" />
            <mxPoint x="549" y="720.36" as="targetPoint" />
          </mxGeometry>
        </mxCell>
        <mxCell id="DypJANMSsr71ooLyFjz9-43" value="" style="endArrow=none;html=1;rounded=0;strokeWidth=2;strokeColor=#2A3244;endFill=0;" parent="1" edge="1">
          <mxGeometry width="50" height="50" relative="1" as="geometry">
            <mxPoint x="517" y="720" as="sourcePoint" />
            <mxPoint x="557" y="760" as="targetPoint" />
          </mxGeometry>
        </mxCell>
        <mxCell id="DypJANMSsr71ooLyFjz9-44" value="Paperwork" style="text;html=1;strokeColor=none;fillColor=none;align=left;verticalAlign=middle;whiteSpace=wrap;rounded=0;fontSize=16;" parent="1" vertex="1">
          <mxGeometry x="560" y="750" width="90" height="20" as="geometry" />
        </mxCell>
        <mxCell id="DypJANMSsr71ooLyFjz9-46" value="Time management" style="text;html=1;strokeColor=none;fillColor=none;align=left;verticalAlign=middle;whiteSpace=wrap;rounded=0;fontSize=16;" parent="1" vertex="1">
          <mxGeometry x="567" y="650" width="130" height="40" as="geometry" />
        </mxCell>
        <mxCell id="DypJANMSsr71ooLyFjz9-47" value="" style="endArrow=none;html=1;rounded=0;strokeWidth=2;strokeColor=#2A3244;endFill=0;" parent="1" edge="1">
          <mxGeometry width="50" height="50" relative="1" as="geometry">
            <mxPoint x="511" y="670" as="sourcePoint" />
            <mxPoint x="566" y="670.36" as="targetPoint" />
          </mxGeometry>
        </mxCell>
        <mxCell id="DypJANMSsr71ooLyFjz9-48" value="No set jobs" style="text;html=1;strokeColor=none;fillColor=none;align=left;verticalAlign=middle;whiteSpace=wrap;rounded=0;fontSize=16;" parent="1" vertex="1">
          <mxGeometry x="604" y="546" width="130" height="40" as="geometry" />
        </mxCell>
        <mxCell id="DypJANMSsr71ooLyFjz9-49" value="" style="endArrow=none;html=1;rounded=0;strokeWidth=2;strokeColor=#2A3244;endFill=0;" parent="1" edge="1">
          <mxGeometry width="50" height="50" relative="1" as="geometry">
            <mxPoint x="548" y="566" as="sourcePoint" />
            <mxPoint x="603" y="566.36" as="targetPoint" />
          </mxGeometry>
        </mxCell>
        <mxCell id="DypJANMSsr71ooLyFjz9-50" value="Additional tasks not on paperwork" style="text;html=1;strokeColor=none;fillColor=none;align=left;verticalAlign=middle;whiteSpace=wrap;rounded=0;fontSize=16;" parent="1" vertex="1">
          <mxGeometry x="636" y="454" width="130" height="40" as="geometry" />
        </mxCell>
        <mxCell id="DypJANMSsr71ooLyFjz9-51" value="" style="endArrow=none;html=1;rounded=0;strokeWidth=2;strokeColor=#2A3244;endFill=0;" parent="1" edge="1">
          <mxGeometry width="50" height="50" relative="1" as="geometry">
            <mxPoint x="580" y="474" as="sourcePoint" />
            <mxPoint x="635" y="474.36" as="targetPoint" />
          </mxGeometry>
        </mxCell>
        <mxCell id="vu37tX4Phg-Wcf_OdgLN-1" value="" style="verticalLabelPosition=bottom;verticalAlign=top;html=1;shape=mxgraph.basic.star;fillColor=#E8C13F;strokeColor=#2A3244;" vertex="1" parent="1">
          <mxGeometry x="435" y="362.5" width="15" height="15" as="geometry" />
        </mxCell>
        <mxCell id="vu37tX4Phg-Wcf_OdgLN-2" value="" style="verticalLabelPosition=bottom;verticalAlign=top;html=1;shape=mxgraph.basic.star;fillColor=#E8C13F;strokeColor=#2A3244;" vertex="1" parent="1">
          <mxGeometry x="415" y="362.5" width="15" height="15" as="geometry" />
        </mxCell>
        <mxCell id="vu37tX4Phg-Wcf_OdgLN-7" value="" style="verticalLabelPosition=bottom;verticalAlign=top;html=1;shape=mxgraph.basic.star;fillColor=#E8C13F;strokeColor=#2A3244;" vertex="1" parent="1">
          <mxGeometry x="395" y="362.5" width="15" height="15" as="geometry" />
        </mxCell>
        <mxCell id="vu37tX4Phg-Wcf_OdgLN-9" value="" style="verticalLabelPosition=bottom;verticalAlign=top;html=1;shape=mxgraph.basic.star;fillColor=#E8C13F;strokeColor=#2A3244;" vertex="1" parent="1">
          <mxGeometry x="402.5" y="198" width="15" height="15" as="geometry" />
        </mxCell>
        <mxCell id="vu37tX4Phg-Wcf_OdgLN-16" value="" style="verticalLabelPosition=bottom;verticalAlign=top;html=1;shape=mxgraph.basic.star;fillColor=#E8C13F;strokeColor=#2A3244;" vertex="1" parent="1">
          <mxGeometry x="333.5" y="114.5" width="15" height="15" as="geometry" />
        </mxCell>
        <mxCell id="vu37tX4Phg-Wcf_OdgLN-17" value="" style="verticalLabelPosition=bottom;verticalAlign=top;html=1;shape=mxgraph.basic.star;fillColor=#E8C13F;strokeColor=#2A3244;" vertex="1" parent="1">
          <mxGeometry x="351" y="114.5" width="15" height="15" as="geometry" />
        </mxCell>
        <mxCell id="vu37tX4Phg-Wcf_OdgLN-18" value="" style="verticalLabelPosition=bottom;verticalAlign=top;html=1;shape=mxgraph.basic.star;fillColor=#E8C13F;strokeColor=#2A3244;" vertex="1" parent="1">
          <mxGeometry x="370" y="114.5" width="15" height="15" as="geometry" />
        </mxCell>
        <mxCell id="vu37tX4Phg-Wcf_OdgLN-23" value="" style="verticalLabelPosition=bottom;verticalAlign=top;html=1;shape=mxgraph.basic.star;fillColor=#E8C13F;strokeColor=#2A3244;" vertex="1" parent="1">
          <mxGeometry x="692" y="137.5" width="15" height="15" as="geometry" />
        </mxCell>
        <mxCell id="vu37tX4Phg-Wcf_OdgLN-24" value="" style="verticalLabelPosition=bottom;verticalAlign=top;html=1;shape=mxgraph.basic.star;fillColor=#E8C13F;strokeColor=#2A3244;" vertex="1" parent="1">
          <mxGeometry x="672" y="137.5" width="15" height="15" as="geometry" />
        </mxCell>
        <mxCell id="vu37tX4Phg-Wcf_OdgLN-25" value="" style="verticalLabelPosition=bottom;verticalAlign=top;html=1;shape=mxgraph.basic.star;fillColor=#E8C13F;strokeColor=#2A3244;" vertex="1" parent="1">
          <mxGeometry x="652" y="137.5" width="15" height="15" as="geometry" />
        </mxCell>
        <mxCell id="vu37tX4Phg-Wcf_OdgLN-26" value="" style="verticalLabelPosition=bottom;verticalAlign=top;html=1;shape=mxgraph.basic.star;fillColor=#E8C13F;strokeColor=#2A3244;" vertex="1" parent="1">
          <mxGeometry x="752" y="137.5" width="15" height="15" as="geometry" />
        </mxCell>
        <mxCell id="vu37tX4Phg-Wcf_OdgLN-27" value="" style="verticalLabelPosition=bottom;verticalAlign=top;html=1;shape=mxgraph.basic.star;fillColor=#E8C13F;strokeColor=#2A3244;" vertex="1" parent="1">
          <mxGeometry x="732" y="137.5" width="15" height="15" as="geometry" />
        </mxCell>
        <mxCell id="vu37tX4Phg-Wcf_OdgLN-28" value="" style="verticalLabelPosition=bottom;verticalAlign=top;html=1;shape=mxgraph.basic.star;fillColor=#E8C13F;strokeColor=#2A3244;" vertex="1" parent="1">
          <mxGeometry x="712" y="137.5" width="15" height="15" as="geometry" />
        </mxCell>
        <mxCell id="vu37tX4Phg-Wcf_OdgLN-29" value="" style="verticalLabelPosition=bottom;verticalAlign=top;html=1;shape=mxgraph.basic.star;fillColor=#E8C13F;strokeColor=#2A3244;" vertex="1" parent="1">
          <mxGeometry x="691" y="199.5" width="15" height="15" as="geometry" />
        </mxCell>
        <mxCell id="vu37tX4Phg-Wcf_OdgLN-30" value="" style="verticalLabelPosition=bottom;verticalAlign=top;html=1;shape=mxgraph.basic.star;fillColor=#E8C13F;strokeColor=#2A3244;" vertex="1" parent="1">
          <mxGeometry x="751" y="199.5" width="15" height="15" as="geometry" />
        </mxCell>
        <mxCell id="vu37tX4Phg-Wcf_OdgLN-31" value="" style="verticalLabelPosition=bottom;verticalAlign=top;html=1;shape=mxgraph.basic.star;fillColor=#E8C13F;strokeColor=#2A3244;" vertex="1" parent="1">
          <mxGeometry x="731" y="199.5" width="15" height="15" as="geometry" />
        </mxCell>
        <mxCell id="vu37tX4Phg-Wcf_OdgLN-32" value="" style="verticalLabelPosition=bottom;verticalAlign=top;html=1;shape=mxgraph.basic.star;fillColor=#E8C13F;strokeColor=#2A3244;" vertex="1" parent="1">
          <mxGeometry x="711" y="199.5" width="15" height="15" as="geometry" />
        </mxCell>
        <mxCell id="vu37tX4Phg-Wcf_OdgLN-33" value="" style="verticalLabelPosition=bottom;verticalAlign=top;html=1;shape=mxgraph.basic.star;fillColor=#E8C13F;strokeColor=#2A3244;" vertex="1" parent="1">
          <mxGeometry x="702" y="251.5" width="15" height="15" as="geometry" />
        </mxCell>
        <mxCell id="vu37tX4Phg-Wcf_OdgLN-34" value="" style="verticalLabelPosition=bottom;verticalAlign=top;html=1;shape=mxgraph.basic.star;fillColor=#E8C13F;strokeColor=#2A3244;" vertex="1" parent="1">
          <mxGeometry x="755" y="288.5" width="15" height="15" as="geometry" />
        </mxCell>
        <mxCell id="vu37tX4Phg-Wcf_OdgLN-35" value="" style="verticalLabelPosition=bottom;verticalAlign=top;html=1;shape=mxgraph.basic.star;fillColor=#E8C13F;strokeColor=#2A3244;" vertex="1" parent="1">
          <mxGeometry x="755" y="454" width="15" height="15" as="geometry" />
        </mxCell>
        <mxCell id="vu37tX4Phg-Wcf_OdgLN-36" value="" style="verticalLabelPosition=bottom;verticalAlign=top;html=1;shape=mxgraph.basic.star;fillColor=#E8C13F;strokeColor=#2A3244;" vertex="1" parent="1">
          <mxGeometry x="716" y="526.5" width="15" height="15" as="geometry" />
        </mxCell>
        <mxCell id="vu37tX4Phg-Wcf_OdgLN-37" value="" style="verticalLabelPosition=bottom;verticalAlign=top;html=1;shape=mxgraph.basic.star;fillColor=#E8C13F;strokeColor=#2A3244;" vertex="1" parent="1">
          <mxGeometry x="776" y="526.5" width="15" height="15" as="geometry" />
        </mxCell>
        <mxCell id="vu37tX4Phg-Wcf_OdgLN-38" value="" style="verticalLabelPosition=bottom;verticalAlign=top;html=1;shape=mxgraph.basic.star;fillColor=#E8C13F;strokeColor=#2A3244;" vertex="1" parent="1">
          <mxGeometry x="756" y="526.5" width="15" height="15" as="geometry" />
        </mxCell>
        <mxCell id="vu37tX4Phg-Wcf_OdgLN-39" value="" style="verticalLabelPosition=bottom;verticalAlign=top;html=1;shape=mxgraph.basic.star;fillColor=#E8C13F;strokeColor=#2A3244;" vertex="1" parent="1">
          <mxGeometry x="736" y="526.5" width="15" height="15" as="geometry" />
        </mxCell>
        <mxCell id="vu37tX4Phg-Wcf_OdgLN-40" value="" style="verticalLabelPosition=bottom;verticalAlign=top;html=1;shape=mxgraph.basic.star;fillColor=#E8C13F;strokeColor=#2A3244;" vertex="1" parent="1">
          <mxGeometry x="635" y="712.5" width="15" height="15" as="geometry" />
        </mxCell>
        <mxCell id="vu37tX4Phg-Wcf_OdgLN-41" value="" style="verticalLabelPosition=bottom;verticalAlign=top;html=1;shape=mxgraph.basic.star;fillColor=#E8C13F;strokeColor=#2A3244;" vertex="1" parent="1">
          <mxGeometry x="695" y="712.5" width="15" height="15" as="geometry" />
        </mxCell>
        <mxCell id="vu37tX4Phg-Wcf_OdgLN-42" value="" style="verticalLabelPosition=bottom;verticalAlign=top;html=1;shape=mxgraph.basic.star;fillColor=#E8C13F;strokeColor=#2A3244;" vertex="1" parent="1">
          <mxGeometry x="675" y="712.5" width="15" height="15" as="geometry" />
        </mxCell>
        <mxCell id="vu37tX4Phg-Wcf_OdgLN-43" value="" style="verticalLabelPosition=bottom;verticalAlign=top;html=1;shape=mxgraph.basic.star;fillColor=#E8C13F;strokeColor=#2A3244;" vertex="1" parent="1">
          <mxGeometry x="655" y="712.5" width="15" height="15" as="geometry" />
        </mxCell>
        <mxCell id="vu37tX4Phg-Wcf_OdgLN-44" value="" style="verticalLabelPosition=bottom;verticalAlign=top;html=1;shape=mxgraph.basic.star;fillColor=#E8C13F;strokeColor=#2A3244;" vertex="1" parent="1">
          <mxGeometry x="715" y="713.5" width="15" height="15" as="geometry" />
        </mxCell>
        <mxCell id="vu37tX4Phg-Wcf_OdgLN-45" value="" style="verticalLabelPosition=bottom;verticalAlign=top;html=1;shape=mxgraph.basic.star;fillColor=#E8C13F;strokeColor=#2A3244;" vertex="1" parent="1">
          <mxGeometry x="775" y="713.5" width="15" height="15" as="geometry" />
        </mxCell>
        <mxCell id="vu37tX4Phg-Wcf_OdgLN-46" value="" style="verticalLabelPosition=bottom;verticalAlign=top;html=1;shape=mxgraph.basic.star;fillColor=#E8C13F;strokeColor=#2A3244;" vertex="1" parent="1">
          <mxGeometry x="755" y="713.5" width="15" height="15" as="geometry" />
        </mxCell>
        <mxCell id="vu37tX4Phg-Wcf_OdgLN-47" value="" style="verticalLabelPosition=bottom;verticalAlign=top;html=1;shape=mxgraph.basic.star;fillColor=#E8C13F;strokeColor=#2A3244;" vertex="1" parent="1">
          <mxGeometry x="735" y="713.5" width="15" height="15" as="geometry" />
        </mxCell>
        <mxCell id="vu37tX4Phg-Wcf_OdgLN-48" value="" style="verticalLabelPosition=bottom;verticalAlign=top;html=1;shape=mxgraph.basic.star;fillColor=#E8C13F;strokeColor=#2A3244;" vertex="1" parent="1">
          <mxGeometry x="642" y="752.5" width="15" height="15" as="geometry" />
        </mxCell>
        <mxCell id="vu37tX4Phg-Wcf_OdgLN-49" value="" style="verticalLabelPosition=bottom;verticalAlign=top;html=1;shape=mxgraph.basic.star;fillColor=#E8C13F;strokeColor=#2A3244;" vertex="1" parent="1">
          <mxGeometry x="702" y="752.5" width="15" height="15" as="geometry" />
        </mxCell>
        <mxCell id="vu37tX4Phg-Wcf_OdgLN-50" value="" style="verticalLabelPosition=bottom;verticalAlign=top;html=1;shape=mxgraph.basic.star;fillColor=#E8C13F;strokeColor=#2A3244;" vertex="1" parent="1">
          <mxGeometry x="682" y="752.5" width="15" height="15" as="geometry" />
        </mxCell>
        <mxCell id="vu37tX4Phg-Wcf_OdgLN-51" value="" style="verticalLabelPosition=bottom;verticalAlign=top;html=1;shape=mxgraph.basic.star;fillColor=#E8C13F;strokeColor=#2A3244;" vertex="1" parent="1">
          <mxGeometry x="662" y="752.5" width="15" height="15" as="geometry" />
        </mxCell>
        <mxCell id="vu37tX4Phg-Wcf_OdgLN-52" value="" style="verticalLabelPosition=bottom;verticalAlign=top;html=1;shape=mxgraph.basic.star;fillColor=#E8C13F;strokeColor=#2A3244;" vertex="1" parent="1">
          <mxGeometry x="690" y="670.5" width="15" height="15" as="geometry" />
        </mxCell>
        <mxCell id="vu37tX4Phg-Wcf_OdgLN-55" value="" style="verticalLabelPosition=bottom;verticalAlign=top;html=1;shape=mxgraph.basic.star;fillColor=#E8C13F;strokeColor=#2A3244;" vertex="1" parent="1">
          <mxGeometry x="1039" y="633.5" width="15" height="15" as="geometry" />
        </mxCell>
        <mxCell id="vu37tX4Phg-Wcf_OdgLN-56" value="" style="verticalLabelPosition=bottom;verticalAlign=top;html=1;shape=mxgraph.basic.star;fillColor=#E8C13F;strokeColor=#2A3244;" vertex="1" parent="1">
          <mxGeometry x="1057" y="633.5" width="15" height="15" as="geometry" />
        </mxCell>
        <mxCell id="vu37tX4Phg-Wcf_OdgLN-59" value="" style="verticalLabelPosition=bottom;verticalAlign=top;html=1;shape=mxgraph.basic.star;fillColor=#E8C13F;strokeColor=#2A3244;" vertex="1" parent="1">
          <mxGeometry x="1099" y="539.5" width="15" height="15" as="geometry" />
        </mxCell>
        <mxCell id="vu37tX4Phg-Wcf_OdgLN-60" value="" style="verticalLabelPosition=bottom;verticalAlign=top;html=1;shape=mxgraph.basic.star;fillColor=#E8C13F;strokeColor=#2A3244;" vertex="1" parent="1">
          <mxGeometry x="1117" y="539.5" width="15" height="15" as="geometry" />
        </mxCell>
        <mxCell id="6ujHow39TzwKyRZsHNIN-1" value="" style="verticalLabelPosition=bottom;verticalAlign=top;html=1;shape=mxgraph.basic.star;fillColor=#E8C13F;strokeColor=#2A3244;" vertex="1" parent="1">
          <mxGeometry x="404" y="558" width="15" height="15" as="geometry" />
        </mxCell>
        <mxCell id="6ujHow39TzwKyRZsHNIN-2" value="" style="verticalLabelPosition=bottom;verticalAlign=top;html=1;shape=mxgraph.basic.star;fillColor=#E8C13F;strokeColor=#2A3244;" vertex="1" parent="1">
          <mxGeometry x="334" y="602" width="15" height="15" as="geometry" />
        </mxCell>
        <mxCell id="6ujHow39TzwKyRZsHNIN-3" value="" style="verticalLabelPosition=bottom;verticalAlign=top;html=1;shape=mxgraph.basic.star;fillColor=#E8C13F;strokeColor=#2A3244;" vertex="1" parent="1">
          <mxGeometry x="344" y="651" width="15" height="15" as="geometry" />
        </mxCell>
        <mxCell id="6ujHow39TzwKyRZsHNIN-4" value="" style="verticalLabelPosition=bottom;verticalAlign=top;html=1;shape=mxgraph.basic.star;fillColor=#E8C13F;strokeColor=#2A3244;" vertex="1" parent="1">
          <mxGeometry x="775" y="454" width="15" height="15" as="geometry" />
        </mxCell>
        <mxCell id="6ujHow39TzwKyRZsHNIN-5" value="No set jobs" style="text;html=1;strokeColor=none;fillColor=none;align=left;verticalAlign=middle;whiteSpace=wrap;rounded=0;fontSize=16;" vertex="1" parent="1">
          <mxGeometry x="618" y="285.5" width="120" height="40" as="geometry" />
        </mxCell>
        <mxCell id="6ujHow39TzwKyRZsHNIN-6" value="" style="endArrow=none;html=1;rounded=0;strokeWidth=2;strokeColor=#2A3244;endFill=0;" edge="1" parent="1">
          <mxGeometry width="50" height="50" relative="1" as="geometry">
            <mxPoint x="563" y="305.5" as="sourcePoint" />
            <mxPoint x="618" y="305.86" as="targetPoint" />
          </mxGeometry>
        </mxCell>
        <mxCell id="6ujHow39TzwKyRZsHNIN-7" value="Time management" style="text;html=1;strokeColor=none;fillColor=none;align=left;verticalAlign=middle;whiteSpace=wrap;rounded=0;fontSize=16;" vertex="1" parent="1">
          <mxGeometry x="643" y="365.5" width="120" height="40" as="geometry" />
        </mxCell>
        <mxCell id="6ujHow39TzwKyRZsHNIN-8" value="" style="endArrow=none;html=1;rounded=0;strokeWidth=2;strokeColor=#2A3244;endFill=0;" edge="1" parent="1">
          <mxGeometry width="50" height="50" relative="1" as="geometry">
            <mxPoint x="588" y="385.5" as="sourcePoint" />
            <mxPoint x="643" y="385.86" as="targetPoint" />
          </mxGeometry>
        </mxCell>
      </root>
    </mxGraphModel>
  </diagram>
</mxfile>
